<?xml version="1.0" encoding="UTF-8"?>
<!DOCTYPE svg PUBLIC "-//W3C//DTD SVG 1.1//EN" "http://www.w3.org/Graphics/SVG/1.1/DTD/svg11.dtd">
<svg xmlns="http://www.w3.org/2000/svg" version="1.1" width="1920px" height="376px" style="shape-rendering:geometricPrecision; text-rendering:geometricPrecision; image-rendering:optimizeQuality; fill-rule:evenodd; clip-rule:evenodd" xmlns:xlink="http://www.w3.org/1999/xlink">
<g><path style="opacity:1" fill="#e6e5ed" d="M 1448.5,-0.5 C 1460.17,-0.5 1471.83,-0.5 1483.5,-0.5C 1491.53,0.845679 1499.53,2.84568 1507.5,5.5C 1508.84,4.09773 1509.68,4.43107 1510,6.5C 1510.33,6.16667 1510.67,5.83333 1511,5.5C 1512.97,7.3869 1515.3,8.72023 1518,9.5C 1518.33,9.16667 1518.67,8.83333 1519,8.5C 1521.05,10.5238 1523.38,12.1905 1526,13.5C 1527,13.5 1528,13.5 1529,13.5C 1529.42,14.6721 1530.09,15.6721 1531,16.5C 1532,16.5 1533,16.5 1534,16.5C 1534.91,17.3279 1535.58,18.3279 1536,19.5C 1540.14,20.7874 1544.14,23.1207 1548,26.5C 1549,26.5 1550,26.5 1551,26.5C 1553.92,28.9983 1556.92,31.3316 1560,33.5C 1560.33,33.1667 1560.67,32.8333 1561,32.5C 1579.56,44.5618 1599.06,55.8951 1619.5,66.5C 1619.5,66.8333 1619.5,67.1667 1619.5,67.5C 1610.57,68.0122 1601.9,69.3455 1593.5,71.5C 1587.71,71.4399 1582.04,72.1066 1576.5,73.5C 1559.5,64.6882 1542.84,55.1882 1526.5,45C 1497.85,30.8356 1467.85,26.6689 1436.5,32.5C 1431.78,32.3738 1427.45,33.3738 1423.5,35.5C 1416.56,36.898 1409.89,38.898 1403.5,41.5C 1393.9,43.5646 1384.56,46.2312 1375.5,49.5C 1371.28,49.686 1367.28,50.686 1363.5,52.5C 1358.84,53.0569 1354.5,54.3902 1350.5,56.5C 1345.54,56.905 1340.88,58.2383 1336.5,60.5C 1333.27,60.6761 1330.27,61.3428 1327.5,62.5C 1317.32,65.6335 1306.98,68.6335 1296.5,71.5C 1293.01,71.446 1290.01,72.446 1287.5,74.5C 1287.17,74.5 1286.83,74.5 1286.5,74.5C 1284.1,74.2594 1282.1,74.9261 1280.5,76.5C 1277.67,76.5838 1275.01,77.2504 1272.5,78.5C 1269.85,78.4095 1267.51,79.0762 1265.5,80.5C 1260.46,81.8389 1255.46,83.1722 1250.5,84.5C 1247.85,84.4095 1245.51,85.0762 1243.5,86.5C 1232.1,89.6352 1220.76,92.9685 1209.5,96.5C 1204.84,97.0569 1200.5,98.3902 1196.5,100.5C 1193.57,100.565 1190.91,101.232 1188.5,102.5C 1184.63,103.744 1180.63,104.744 1176.5,105.5C 1174.8,105.66 1173.13,105.494 1171.5,105C 1173.93,103.913 1173.6,103.413 1170.5,103.5C 1170.59,106.4 1169.26,108.067 1166.5,108.5C 1161.23,109.589 1156.23,111.256 1151.5,113.5C 1147.23,113.566 1143.23,114.566 1139.5,116.5C 1135.84,116.723 1132.5,117.723 1129.5,119.5C 1124.57,120.259 1119.9,121.592 1115.5,123.5C 1112.85,123.41 1110.51,124.076 1108.5,125.5C 1105.37,126.227 1102.2,126.894 1099,127.5C 1097.62,127.684 1096.79,128.351 1096.5,129.5C 1095.17,129.5 1093.83,129.5 1092.5,129.5C 1088.1,129.926 1084.1,131.26 1080.5,133.5C 1072.9,134.928 1065.57,136.928 1058.5,139.5C 1045.36,142.996 1032.36,146.663 1019.5,150.5C 1018.43,151.434 1017.1,151.768 1015.5,151.5C 1011.1,151.926 1007.1,153.26 1003.5,155.5C 1001.59,155.216 999.919,155.549 998.5,156.5C 994.233,157.256 990.233,158.589 986.5,160.5C 984.708,160.366 983.042,160.699 981.5,161.5C 976.917,162.34 972.584,163.674 968.5,165.5C 965.673,165.584 963.006,166.25 960.5,167.5C 957.848,167.41 955.515,168.076 953.5,169.5C 948.959,170.336 944.626,171.669 940.5,173.5C 936.475,173.63 932.809,174.63 929.5,176.5C 926.833,177.167 924.167,177.833 921.5,178.5C 918.145,178.69 915.145,179.69 912.5,181.5C 903.254,183.674 894.254,186.34 885.5,189.5C 885.167,189.5 884.833,189.5 884.5,189.5C 881.848,189.41 879.515,190.076 877.5,191.5C 870.756,192.853 864.089,194.519 857.5,196.5C 855.801,196.66 854.134,196.494 852.5,196C 843.6,188.919 834.6,182.086 825.5,175.5C 825.5,175.167 825.5,174.833 825.5,174.5C 1026.64,117.792 1226.64,60.9588 1425.5,4C 1433.27,2.34925 1440.94,0.849251 1448.5,-0.5 Z"/></g>
<g><path style="opacity:1" fill="#7573a4" d="M 1436.5,32.5 C 1432.38,33.9434 1428.05,34.9434 1423.5,35.5C 1427.45,33.3738 1431.78,32.3738 1436.5,32.5 Z"/></g>
<g><path style="opacity:1" fill="#06065e" d="M 1576.5,73.5 C 1576.84,74.3382 1577.51,74.6716 1578.5,74.5C 1586.64,80.2909 1595.31,85.2909 1604.5,89.5C 1604.97,90.9063 1605.97,91.573 1607.5,91.5C 1607.84,92.3382 1608.51,92.6716 1609.5,92.5C 1611.34,94.588 1613.67,95.9213 1616.5,96.5C 1616.97,97.9063 1617.97,98.573 1619.5,98.5C 1620.51,99.6737 1621.85,100.34 1623.5,100.5C 1623.97,101.906 1624.97,102.573 1626.5,102.5C 1627.51,103.674 1628.85,104.34 1630.5,104.5C 1630.97,105.906 1631.97,106.573 1633.5,106.5C 1638.5,110.003 1643.83,113.003 1649.5,115.5C 1649.97,116.906 1650.97,117.573 1652.5,117.5C 1655.97,119.736 1659.63,121.736 1663.5,123.5C 1663.97,124.906 1664.97,125.573 1666.5,125.5C 1666.84,126.338 1667.51,126.672 1668.5,126.5C 1668.97,127.906 1669.97,128.573 1671.5,128.5C 1675.58,131.227 1679.91,133.561 1684.5,135.5C 1684.97,136.906 1685.97,137.573 1687.5,137.5C 1687.84,138.338 1688.51,138.672 1689.5,138.5C 1689.97,139.906 1690.97,140.573 1692.5,140.5C 1695.68,143.258 1699.34,145.258 1703.5,146.5C 1707.16,149.335 1711.16,151.668 1715.5,153.5C 1716.51,154.674 1717.85,155.34 1719.5,155.5C 1719.97,156.906 1720.97,157.573 1722.5,157.5C 1731.49,163.332 1740.82,168.665 1750.5,173.5C 1750.97,174.906 1751.97,175.573 1753.5,175.5C 1756.26,177.596 1759.26,179.262 1762.5,180.5C 1762.97,181.906 1763.97,182.573 1765.5,182.5C 1769.58,185.227 1773.91,187.561 1778.5,189.5C 1778.97,190.906 1779.97,191.573 1781.5,191.5C 1781.84,192.338 1782.51,192.672 1783.5,192.5C 1786.22,194.527 1789.22,196.193 1792.5,197.5C 1792.97,198.906 1793.97,199.573 1795.5,199.5C 1795.84,200.338 1796.51,200.672 1797.5,200.5C 1797.97,201.906 1798.97,202.573 1800.5,202.5C 1801.51,203.674 1802.85,204.34 1804.5,204.5C 1804.97,205.906 1805.97,206.573 1807.5,206.5C 1808.51,207.674 1809.85,208.34 1811.5,208.5C 1811.97,209.906 1812.97,210.573 1814.5,210.5C 1819.5,214.003 1824.83,217.003 1830.5,219.5C 1830.97,220.906 1831.97,221.573 1833.5,221.5C 1836.33,223.417 1839.33,225.083 1842.5,226.5C 1842.97,227.906 1843.97,228.573 1845.5,228.5C 1850.33,231.418 1855.33,234.084 1860.5,236.5C 1861.26,238.262 1862.6,239.262 1864.5,239.5C 1865.39,240.11 1866.39,240.443 1867.5,240.5C 1867.97,241.906 1868.97,242.573 1870.5,242.5C 1870.84,243.338 1871.51,243.672 1872.5,243.5C 1874.34,245.588 1876.67,246.921 1879.5,247.5C 1879.97,248.906 1880.97,249.573 1882.5,249.5C 1886,251.75 1889.67,253.75 1893.5,255.5C 1893.97,256.906 1894.97,257.573 1896.5,257.5C 1897.51,258.674 1898.85,259.34 1900.5,259.5C 1900.97,260.906 1901.97,261.573 1903.5,261.5C 1903.84,262.338 1904.51,262.672 1905.5,262.5C 1905.97,263.906 1906.97,264.573 1908.5,264.5C 1909.51,265.674 1910.85,266.34 1912.5,266.5C 1912.97,267.906 1913.97,268.573 1915.5,268.5C 1916.51,269.674 1917.85,270.34 1919.5,270.5C 1919.5,305.5 1919.5,340.5 1919.5,375.5C 1279.5,375.5 639.5,375.5 -0.5,375.5C -0.5,339.5 -0.5,303.5 -0.5,267.5C 15.176,273.518 30.8427,279.518 46.5,285.5C 48.5093,287.065 50.8427,288.065 53.5,288.5C 53.8333,288.5 54.1667,288.5 54.5,288.5C 55.6354,290.213 57.302,290.88 59.5,290.5C 60.9303,291.537 62.597,292.204 64.5,292.5C 73.826,296.162 83.1593,299.829 92.5,303.5C 93.4916,303.328 94.1583,303.662 94.5,304.5C 95.9303,305.537 97.597,306.204 99.5,306.5C 101.042,307.301 102.708,307.634 104.5,307.5C 104.973,308.906 105.973,309.573 107.5,309.5C 115.585,313.085 123.918,316.085 132.5,318.5C 132.973,319.906 133.973,320.573 135.5,320.5C 137.421,321.363 139.421,322.029 141.5,322.5C 171.573,334.472 201.907,345.972 232.5,357C 249.7,360.535 267.034,361.368 284.5,359.5C 291.359,359.493 298.026,358.326 304.5,356C 305.056,355.617 305.389,355.117 305.5,354.5C 415.43,322.851 525.43,291.518 635.5,260.5C 639.915,260.139 643.915,258.806 647.5,256.5C 717.723,236.64 787.723,216.64 857.5,196.5C 864.089,194.519 870.756,192.853 877.5,191.5C 880.152,191.59 882.485,190.924 884.5,189.5C 884.833,189.5 885.167,189.5 885.5,189.5C 886.695,189.678 887.862,190.011 889,190.5C 890.72,189.277 892.553,188.277 894.5,187.5C 896.347,188.511 898.18,189.511 900,190.5C 901.798,186.374 904.964,184.207 909.5,184C 910.571,183.148 911.571,182.315 912.5,181.5C 915.916,181.472 918.916,180.472 921.5,178.5C 924.167,177.833 926.833,177.167 929.5,176.5C 933.479,176.258 937.146,175.258 940.5,173.5C 944.626,171.669 948.959,170.336 953.5,169.5C 956.152,169.59 958.485,168.924 960.5,167.5C 963.006,166.25 965.673,165.584 968.5,165.5C 973.264,165.231 977.597,163.898 981.5,161.5C 983.042,160.699 984.708,160.366 986.5,160.5C 990.915,160.139 994.915,158.806 998.5,156.5C 999.919,155.549 1001.59,155.216 1003.5,155.5C 1007.92,155.139 1011.92,153.806 1015.5,151.5C 1017.1,151.768 1018.43,151.434 1019.5,150.5C 1021.2,150.62 1022.87,150.954 1024.5,151.5C 1026.28,150.055 1028.28,149.055 1030.5,148.5C 1036.65,149.856 1041.32,148.356 1044.5,144C 1048.16,142.632 1051.83,142.299 1055.5,143C 1057.06,142.28 1058.06,141.113 1058.5,139.5C 1065.57,136.928 1072.9,134.928 1080.5,133.5C 1084.92,133.139 1088.92,131.806 1092.5,129.5C 1093.83,129.5 1095.17,129.5 1096.5,129.5C 1102.93,129.148 1109.26,128.148 1115.5,126.5C 1119.97,123.598 1124.64,121.264 1129.5,119.5C 1133.16,119.277 1136.5,118.277 1139.5,116.5C 1143.23,114.566 1147.23,113.566 1151.5,113.5C 1156.92,112.806 1161.92,111.14 1166.5,108.5C 1169.88,108.041 1173.21,107.374 1176.5,106.5C 1181.04,106.375 1185.04,105.042 1188.5,102.5C 1190.91,101.232 1193.57,100.565 1196.5,100.5C 1201.16,99.9431 1205.5,98.6098 1209.5,96.5C 1220.76,92.9685 1232.1,89.6352 1243.5,86.5C 1246.15,86.5905 1248.49,85.9238 1250.5,84.5C 1256.06,84.6646 1261.06,83.3312 1265.5,80.5C 1268.15,80.5905 1270.49,79.9238 1272.5,78.5C 1275.01,77.2504 1277.67,76.5838 1280.5,76.5C 1282.9,76.7406 1284.9,76.0739 1286.5,74.5C 1286.83,74.5 1287.17,74.5 1287.5,74.5C 1290.75,73.9459 1293.75,72.9459 1296.5,71.5C 1306.98,68.6335 1317.32,65.6335 1327.5,62.5C 1330.83,62.7847 1333.83,62.1181 1336.5,60.5C 1340.88,58.2383 1345.54,56.905 1350.5,56.5C 1355.16,55.9431 1359.5,54.6098 1363.5,52.5C 1367.28,50.686 1371.28,49.686 1375.5,49.5C 1378.2,49.5339 1380.7,48.8672 1383,47.5C 1384.7,48.4061 1386.53,48.7394 1388.5,48.5C 1388.35,49.552 1388.52,50.552 1389,51.5C 1390.49,45.6583 1394.32,43.1583 1400.5,44C 1401.57,43.1482 1402.57,42.3149 1403.5,41.5C 1409.89,38.898 1416.56,36.898 1423.5,35.5C 1428.05,34.9434 1432.38,33.9434 1436.5,32.5C 1467.85,26.6689 1497.85,30.8356 1526.5,45C 1542.84,55.1882 1559.5,64.6882 1576.5,73.5 Z"/></g>
<g><path style="opacity:1" fill="#231c67" d="M 1403.5,41.5 C 1402.57,42.3149 1401.57,43.1482 1400.5,44C 1394.32,43.1583 1390.49,45.6583 1389,51.5C 1388.52,50.552 1388.35,49.552 1388.5,48.5C 1386.53,48.7394 1384.7,48.4061 1383,47.5C 1380.7,48.8672 1378.2,49.5339 1375.5,49.5C 1384.56,46.2312 1393.9,43.5646 1403.5,41.5 Z"/></g>
<g><path style="opacity:1" fill="#56538f" d="M 1363.5,52.5 C 1359.5,54.6098 1355.16,55.9431 1350.5,56.5C 1354.5,54.3902 1358.84,53.0569 1363.5,52.5 Z"/></g>
<g><path style="opacity:0.016" fill="#f1fef9" d="M 1678.5,55.5 C 1679.83,56.1667 1679.83,56.1667 1678.5,55.5 Z"/></g>
<g><path style="opacity:1" fill="#676598" d="M 1336.5,60.5 C 1333.83,62.1181 1330.83,62.7847 1327.5,62.5C 1330.27,61.3428 1333.27,60.6761 1336.5,60.5 Z"/></g>
<g><path style="opacity:1" fill="#1fd2a3" d="M 1919.5,196.5 C 1919.5,221.167 1919.5,245.833 1919.5,270.5C 1917.85,270.34 1916.51,269.674 1915.5,268.5C 1915.03,267.094 1914.03,266.427 1912.5,266.5C 1910.85,266.34 1909.51,265.674 1908.5,264.5C 1908.03,263.094 1907.03,262.427 1905.5,262.5C 1904.51,262.672 1903.84,262.338 1903.5,261.5C 1903.03,260.094 1902.03,259.427 1900.5,259.5C 1898.85,259.34 1897.51,258.674 1896.5,257.5C 1896.03,256.094 1895.03,255.427 1893.5,255.5C 1889.67,253.75 1886,251.75 1882.5,249.5C 1882.03,248.094 1881.03,247.427 1879.5,247.5C 1878.14,245.501 1878.81,244.335 1881.5,244C 1878.45,244.412 1875.45,244.245 1872.5,243.5C 1871.51,243.672 1870.84,243.338 1870.5,242.5C 1870.03,241.094 1869.03,240.427 1867.5,240.5C 1866.39,240.443 1865.39,240.11 1864.5,239.5C 1863.74,237.738 1862.4,236.738 1860.5,236.5C 1855.33,234.084 1850.33,231.418 1845.5,228.5C 1845.03,227.094 1844.03,226.427 1842.5,226.5C 1839.33,225.083 1836.33,223.417 1833.5,221.5C 1833.03,220.094 1832.03,219.427 1830.5,219.5C 1824.83,217.003 1819.5,214.003 1814.5,210.5C 1814.03,209.094 1813.03,208.427 1811.5,208.5C 1809.85,208.34 1808.51,207.674 1807.5,206.5C 1807.03,205.094 1806.03,204.427 1804.5,204.5C 1802.85,204.34 1801.51,203.674 1800.5,202.5C 1800.03,201.094 1799.03,200.427 1797.5,200.5C 1796.51,200.672 1795.84,200.338 1795.5,199.5C 1795.03,198.094 1794.03,197.427 1792.5,197.5C 1791.97,196.279 1791.31,195.113 1790.5,194C 1788.13,193.56 1785.8,193.06 1783.5,192.5C 1782.51,192.672 1781.84,192.338 1781.5,191.5C 1781.03,190.094 1780.03,189.427 1778.5,189.5C 1773.91,187.561 1769.58,185.227 1765.5,182.5C 1765.03,181.094 1764.03,180.427 1762.5,180.5C 1759.26,179.262 1756.26,177.596 1753.5,175.5C 1753.03,174.094 1752.03,173.427 1750.5,173.5C 1740.82,168.665 1731.49,163.332 1722.5,157.5C 1722.03,156.094 1721.03,155.427 1719.5,155.5C 1717.85,155.34 1716.51,154.674 1715.5,153.5C 1714.95,151.468 1713.62,150.468 1711.5,150.5C 1710.76,148.014 1709.26,146.014 1707,144.5C 1706.29,145.973 1705.12,146.64 1703.5,146.5C 1699.34,145.258 1695.68,143.258 1692.5,140.5C 1692.03,139.094 1691.03,138.427 1689.5,138.5C 1688.51,138.672 1687.84,138.338 1687.5,137.5C 1687.03,136.094 1686.03,135.427 1684.5,135.5C 1679.91,133.561 1675.58,131.227 1671.5,128.5C 1671.03,127.094 1670.03,126.427 1668.5,126.5C 1667.51,126.672 1666.84,126.338 1666.5,125.5C 1666.03,124.094 1665.03,123.427 1663.5,123.5C 1659.63,121.736 1655.97,119.736 1652.5,117.5C 1652.03,116.094 1651.03,115.427 1649.5,115.5C 1643.83,113.003 1638.5,110.003 1633.5,106.5C 1633.03,105.094 1632.03,104.427 1630.5,104.5C 1628.85,104.34 1627.51,103.674 1626.5,102.5C 1626.03,101.094 1625.03,100.427 1623.5,100.5C 1621.85,100.34 1620.51,99.6737 1619.5,98.5C 1619.03,97.0937 1618.03,96.427 1616.5,96.5C 1616.5,95.5 1616.5,94.5 1616.5,93.5C 1614.1,93.552 1611.76,93.2186 1609.5,92.5C 1608.51,92.6716 1607.84,92.3382 1607.5,91.5C 1607.03,90.0937 1606.03,89.427 1604.5,89.5C 1595.31,85.2909 1586.64,80.2909 1578.5,74.5C 1583.51,73.5814 1588.51,72.5814 1593.5,71.5C 1601.9,69.3455 1610.57,68.0122 1619.5,67.5C 1632.67,66.2147 1645.67,64.048 1658.5,61C 1677.52,58.3353 1695.19,62.002 1711.5,72C 1780.72,113.774 1850.06,155.274 1919.5,196.5 Z"/></g>
<g><path style="opacity:1" fill="#7c7baa" d="M 1296.5,71.5 C 1293.75,72.9459 1290.75,73.9459 1287.5,74.5C 1290.01,72.446 1293.01,71.446 1296.5,71.5 Z"/></g>
<g><path style="opacity:1" fill="#89dccb" d="M 1593.5,71.5 C 1588.51,72.5814 1583.51,73.5814 1578.5,74.5C 1577.51,74.6716 1576.84,74.3382 1576.5,73.5C 1582.04,72.1066 1587.71,71.4399 1593.5,71.5 Z"/></g>
<g><path style="opacity:1" fill="#494888" d="M 1286.5,74.5 C 1284.9,76.0739 1282.9,76.7406 1280.5,76.5C 1282.1,74.9261 1284.1,74.2594 1286.5,74.5 Z"/></g>
<g><path style="opacity:1" fill="#5c5991" d="M 1272.5,78.5 C 1270.49,79.9238 1268.15,80.5905 1265.5,80.5C 1267.51,79.0762 1269.85,78.4095 1272.5,78.5 Z"/></g>
<g><path style="opacity:1" fill="#494382" d="M 1265.5,80.5 C 1261.06,83.3312 1256.06,84.6646 1250.5,84.5C 1255.46,83.1722 1260.46,81.8389 1265.5,80.5 Z"/></g>
<g><path style="opacity:1" fill="#8483ac" d="M 1250.5,84.5 C 1248.49,85.9238 1246.15,86.5905 1243.5,86.5C 1245.51,85.0762 1247.85,84.4095 1250.5,84.5 Z"/></g>
<g><path style="opacity:1" fill="#1d8b94" d="M 1604.5,89.5 C 1606.03,89.427 1607.03,90.0937 1607.5,91.5C 1605.97,91.573 1604.97,90.9063 1604.5,89.5 Z"/></g>
<g><path style="opacity:1" fill="#24ae9f" d="M 1609.5,92.5 C 1611.76,93.2186 1614.1,93.552 1616.5,93.5C 1616.5,94.5 1616.5,95.5 1616.5,96.5C 1613.67,95.9213 1611.34,94.588 1609.5,92.5 Z"/></g>
<g><path style="opacity:0.008" fill="#f3fefc" d="M 1772.5,96.5 C 1773.83,97.1667 1773.83,97.1667 1772.5,96.5 Z"/></g>
<g><path style="opacity:1" fill="#188288" d="M 1616.5,96.5 C 1618.03,96.427 1619.03,97.0937 1619.5,98.5C 1617.97,98.573 1616.97,97.9063 1616.5,96.5 Z"/></g>
<g><path style="opacity:1" fill="#474382" d="M 1209.5,96.5 C 1205.5,98.6098 1201.16,99.9431 1196.5,100.5C 1200.5,98.3902 1204.84,97.0569 1209.5,96.5 Z"/></g>
<g><path style="opacity:1" fill="#1a8388" d="M 1623.5,100.5 C 1625.03,100.427 1626.03,101.094 1626.5,102.5C 1624.97,102.573 1623.97,101.906 1623.5,100.5 Z"/></g>
<g><path style="opacity:1" fill="#b6b4cd" d="M 1176.5,105.5 C 1176.5,105.833 1176.5,106.167 1176.5,106.5C 1173.21,107.374 1169.88,108.041 1166.5,108.5C 1169.26,108.067 1170.59,106.4 1170.5,103.5C 1173.6,103.413 1173.93,103.913 1171.5,105C 1173.13,105.494 1174.8,105.66 1176.5,105.5 Z"/></g>
<g><path style="opacity:1" fill="#383277" d="M 1188.5,102.5 C 1185.04,105.042 1181.04,106.375 1176.5,106.5C 1176.5,106.167 1176.5,105.833 1176.5,105.5C 1180.63,104.744 1184.63,103.744 1188.5,102.5 Z"/></g>
<g><path style="opacity:0.008" fill="#f3fffb" d="M 1774.5,104.5 C 1775.83,105.167 1775.83,105.167 1774.5,104.5 Z"/></g>
<g><path style="opacity:1" fill="#198589" d="M 1630.5,104.5 C 1632.03,104.427 1633.03,105.094 1633.5,106.5C 1631.97,106.573 1630.97,105.906 1630.5,104.5 Z"/></g>
<g><path style="opacity:0.008" fill="#c4f2e7" d="M 1886.5,174.5 C 1897.33,181.415 1908.33,188.081 1919.5,194.5C 1919.5,195.167 1919.5,195.833 1919.5,196.5C 1850.06,155.274 1780.72,113.774 1711.5,72C 1695.19,62.002 1677.52,58.3353 1658.5,61C 1645.67,64.048 1632.67,66.2147 1619.5,67.5C 1619.5,67.1667 1619.5,66.8333 1619.5,66.5C 1636.4,63.3214 1653.4,60.6547 1670.5,58.5C 1680.5,58.6103 1690.16,60.4436 1699.5,64C 1761.92,100.87 1824.25,137.703 1886.5,174.5 Z"/></g>
<g><path style="opacity:0.008" fill="#f3fdfb" d="M 1785.5,109.5 C 1786.83,110.167 1786.83,110.167 1785.5,109.5 Z"/></g>
<g><path style="opacity:1" fill="#474282" d="M 1166.5,108.5 C 1161.92,111.14 1156.92,112.806 1151.5,113.5C 1156.23,111.256 1161.23,109.589 1166.5,108.5 Z"/></g>
<g><path style="opacity:1" fill="#187b83" d="M 1649.5,115.5 C 1651.03,115.427 1652.03,116.094 1652.5,117.5C 1650.97,117.573 1649.97,116.906 1649.5,115.5 Z"/></g>
<g><path style="opacity:1" fill="#55518e" d="M 1139.5,116.5 C 1136.5,118.277 1133.16,119.277 1129.5,119.5C 1132.5,117.723 1135.84,116.723 1139.5,116.5 Z"/></g>
<g><path style="opacity:1" fill="#1a145e" d="M 1129.5,119.5 C 1124.64,121.264 1119.97,123.598 1115.5,126.5C 1109.26,128.148 1102.93,129.148 1096.5,129.5C 1096.79,128.351 1097.62,127.684 1099,127.5C 1102.2,126.894 1105.37,126.227 1108.5,125.5C 1111.15,125.59 1113.49,124.924 1115.5,123.5C 1119.9,121.592 1124.57,120.259 1129.5,119.5 Z"/></g>
<g><path style="opacity:1" fill="#4b4788" d="M 1115.5,123.5 C 1113.49,124.924 1111.15,125.59 1108.5,125.5C 1110.51,124.076 1112.85,123.41 1115.5,123.5 Z"/></g>
<g><path style="opacity:1" fill="#1c7f8a" d="M 1663.5,123.5 C 1665.03,123.427 1666.03,124.094 1666.5,125.5C 1664.97,125.573 1663.97,124.906 1663.5,123.5 Z"/></g>
<g><path style="opacity:1" fill="#147081" d="M 1668.5,126.5 C 1670.03,126.427 1671.03,127.094 1671.5,128.5C 1669.97,128.573 1668.97,127.906 1668.5,126.5 Z"/></g>
<g><path style="opacity:1" fill="#58538d" d="M 1092.5,129.5 C 1088.92,131.806 1084.92,133.139 1080.5,133.5C 1084.1,131.26 1088.1,129.926 1092.5,129.5 Z"/></g>
<g><path style="opacity:0.016" fill="#f2fefe" d="M 1828.5,134.5 C 1829.53,134.897 1829.69,135.563 1829,136.5C 1828.54,135.906 1828.37,135.239 1828.5,134.5 Z"/></g>
<g><path style="opacity:1" fill="#1c838c" d="M 1684.5,135.5 C 1686.03,135.427 1687.03,136.094 1687.5,137.5C 1685.97,137.573 1684.97,136.906 1684.5,135.5 Z"/></g>
<g><path style="opacity:1" fill="#1e7486" d="M 1689.5,138.5 C 1691.03,138.427 1692.03,139.094 1692.5,140.5C 1690.97,140.573 1689.97,139.906 1689.5,138.5 Z"/></g>
<g><path style="opacity:0.008" fill="#f2fffa" d="M 1841.5,140.5 C 1842.83,141.167 1842.83,141.167 1841.5,140.5 Z"/></g>
<g><path style="opacity:0.008" fill="#fdfdf3" d="M 732.5,141.5 C 734.337,141.639 734.67,142.306 733.5,143.5C 732.702,143.043 732.369,142.376 732.5,141.5 Z"/></g>
<g><path style="opacity:0.008" fill="#fefcf4" d="M 787.5,144.5 C 787.897,143.475 788.563,143.308 789.5,144C 788.906,144.464 788.239,144.631 787.5,144.5 Z"/></g>
<g><path style="opacity:1" fill="#251e66" d="M 1058.5,139.5 C 1058.06,141.113 1057.06,142.28 1055.5,143C 1051.83,142.299 1048.16,142.632 1044.5,144C 1041.32,148.356 1036.65,149.856 1030.5,148.5C 1028.28,149.055 1026.28,150.055 1024.5,151.5C 1022.87,150.954 1021.2,150.62 1019.5,150.5C 1032.36,146.663 1045.36,142.996 1058.5,139.5 Z"/></g>
<g><path style="opacity:1" fill="#22b89d" d="M 1715.5,153.5 C 1711.16,151.668 1707.16,149.335 1703.5,146.5C 1705.12,146.64 1706.29,145.973 1707,144.5C 1709.26,146.014 1710.76,148.014 1711.5,150.5C 1713.62,150.468 1714.95,151.468 1715.5,153.5 Z"/></g>
<g><path style="opacity:1" fill="#3191f0" d="M 825.5,175.5 C 834.6,182.086 843.6,188.919 852.5,196C 854.134,196.494 855.801,196.66 857.5,196.5C 787.723,216.64 717.723,236.64 647.5,256.5C 643.233,257.256 639.233,258.589 635.5,260.5C 525.43,291.518 415.43,322.851 305.5,354.5C 298.408,356.265 291.408,357.931 284.5,359.5C 267.034,361.368 249.7,360.535 232.5,357C 201.907,345.972 171.573,334.472 141.5,322.5C 151.487,320.434 161.487,318.1 171.5,315.5C 176.165,314.943 180.498,313.61 184.5,311.5C 185.995,311.011 187.329,310.345 188.5,309.5C 367.721,257.227 546.721,204.394 725.5,151C 744.776,146.855 764.11,146.522 783.5,150C 789.067,151.783 794.401,154.117 799.5,157C 808.02,163.422 816.687,169.588 825.5,175.5 Z"/></g>
<g><path style="opacity:1" fill="#554f8d" d="M 1015.5,151.5 C 1011.92,153.806 1007.92,155.139 1003.5,155.5C 1007.1,153.26 1011.1,151.926 1015.5,151.5 Z"/></g>
<g><path style="opacity:1" fill="#1f8b8f" d="M 1719.5,155.5 C 1721.03,155.427 1722.03,156.094 1722.5,157.5C 1720.97,157.573 1719.97,156.906 1719.5,155.5 Z"/></g>
<g><path style="opacity:0.008" fill="#fefef3" d="M 810.5,159.5 C 811.833,160.167 811.833,160.167 810.5,159.5 Z"/></g>
<g><path style="opacity:1" fill="#423c7d" d="M 998.5,156.5 C 994.915,158.806 990.915,160.139 986.5,160.5C 990.233,158.589 994.233,157.256 998.5,156.5 Z"/></g>
<g><path style="opacity:1" fill="#4b4688" d="M 981.5,161.5 C 977.597,163.898 973.264,165.231 968.5,165.5C 972.584,163.674 976.917,162.34 981.5,161.5 Z"/></g>
<g><path style="opacity:1" fill="#5d5e91" d="M 960.5,167.5 C 958.485,168.924 956.152,169.59 953.5,169.5C 955.515,168.076 957.848,167.41 960.5,167.5 Z"/></g>
<g><path style="opacity:0.008" fill="#f3fefa" d="M 1886.5,174.5 C 1886.9,173.475 1887.56,173.308 1888.5,174C 1887.91,174.464 1887.24,174.631 1886.5,174.5 Z"/></g>
<g><path style="opacity:1" fill="#5f5b94" d="M 940.5,173.5 C 937.146,175.258 933.479,176.258 929.5,176.5C 932.809,174.63 936.475,173.63 940.5,173.5 Z"/></g>
<g><path style="opacity:1" fill="#1b7983" d="M 1750.5,173.5 C 1752.03,173.427 1753.03,174.094 1753.5,175.5C 1751.97,175.573 1750.97,174.906 1750.5,173.5 Z"/></g>
<g><path style="opacity:1" fill="#544e8d" d="M 921.5,178.5 C 918.916,180.472 915.916,181.472 912.5,181.5C 915.145,179.69 918.145,178.69 921.5,178.5 Z"/></g>
<g><path style="opacity:1" fill="#15687b" d="M 1762.5,180.5 C 1764.03,180.427 1765.03,181.094 1765.5,182.5C 1763.97,182.573 1762.97,181.906 1762.5,180.5 Z"/></g>
<g><path style="opacity:0.016" fill="#f0fefe" d="M 1919.5,184.5 C 1919.5,185.5 1919.5,186.5 1919.5,187.5C 1916.83,186.5 1916.83,185.5 1919.5,184.5 Z"/></g>
<g><path style="opacity:1" fill="#1b1560" d="M 912.5,181.5 C 911.571,182.315 910.571,183.148 909.5,184C 904.964,184.207 901.798,186.374 900,190.5C 898.18,189.511 896.347,188.511 894.5,187.5C 892.553,188.277 890.72,189.277 889,190.5C 887.862,190.011 886.695,189.678 885.5,189.5C 894.254,186.34 903.254,183.674 912.5,181.5 Z"/></g>
<g><path style="opacity:1" fill="#413d80" d="M 884.5,189.5 C 882.485,190.924 880.152,191.59 877.5,191.5C 879.515,190.076 881.848,189.41 884.5,189.5 Z"/></g>
<g><path style="opacity:1" fill="#1d7f85" d="M 1778.5,189.5 C 1780.03,189.427 1781.03,190.094 1781.5,191.5C 1779.97,191.573 1778.97,190.906 1778.5,189.5 Z"/></g>
<g><path style="opacity:0.008" fill="#f3fffc" d="M 1919.5,191.5 C 1919.5,191.833 1919.5,192.167 1919.5,192.5C 1918.83,192.019 1918.83,191.685 1919.5,191.5 Z"/></g>
<g><path style="opacity:1" fill="#22ad9b" d="M 1783.5,192.5 C 1785.8,193.06 1788.13,193.56 1790.5,194C 1791.31,195.113 1791.97,196.279 1792.5,197.5C 1789.22,196.193 1786.22,194.527 1783.5,192.5 Z"/></g>
<g><path style="opacity:0.325" fill="#c1def8" d="M 825.5,174.5 C 825.5,174.833 825.5,175.167 825.5,175.5C 816.687,169.588 808.02,163.422 799.5,157C 794.401,154.117 789.067,151.783 783.5,150C 764.11,146.522 744.776,146.855 725.5,151C 546.721,204.394 367.721,257.227 188.5,309.5C 188.5,309.167 188.5,308.833 188.5,308.5C 272.074,283.758 355.741,258.758 439.5,233.5C 511.8,212.911 583.3,191.911 654,170.5C 679.992,162.46 706.159,154.96 732.5,148C 754.414,143.427 775.747,145.093 796.5,153C 802.597,156.799 808.431,160.965 814,165.5C 816.035,163.088 817.035,163.755 817,167.5C 820.023,169.698 822.856,172.031 825.5,174.5 Z"/></g>
<g><path style="opacity:1" fill="#14878d" d="M 1792.5,197.5 C 1794.03,197.427 1795.03,198.094 1795.5,199.5C 1793.97,199.573 1792.97,198.906 1792.5,197.5 Z"/></g>
<g><path style="opacity:1" fill="#167884" d="M 1797.5,200.5 C 1799.03,200.427 1800.03,201.094 1800.5,202.5C 1798.97,202.573 1797.97,201.906 1797.5,200.5 Z"/></g>
<g><path style="opacity:1" fill="#177884" d="M 1804.5,204.5 C 1806.03,204.427 1807.03,205.094 1807.5,206.5C 1805.97,206.573 1804.97,205.906 1804.5,204.5 Z"/></g>
<g><path style="opacity:1" fill="#167d8b" d="M 1811.5,208.5 C 1813.03,208.427 1814.03,209.094 1814.5,210.5C 1812.97,210.573 1811.97,209.906 1811.5,208.5 Z"/></g>
<g><path style="opacity:1" fill="#167481" d="M 1830.5,219.5 C 1832.03,219.427 1833.03,220.094 1833.5,221.5C 1831.97,221.573 1830.97,220.906 1830.5,219.5 Z"/></g>
<g><path style="opacity:1" fill="#1a6279" d="M 1842.5,226.5 C 1844.03,226.427 1845.03,227.094 1845.5,228.5C 1843.97,228.573 1842.97,227.906 1842.5,226.5 Z"/></g>
<g><path style="opacity:0.012" fill="#f2fefd" d="M 439.5,233.5 C 438.761,233.631 438.094,233.464 437.5,233C 438.437,232.308 439.103,232.475 439.5,233.5 Z"/></g>
<g><path style="opacity:1" fill="#187a82" d="M 1860.5,236.5 C 1862.4,236.738 1863.74,237.738 1864.5,239.5C 1862.6,239.262 1861.26,238.262 1860.5,236.5 Z"/></g>
<g><path style="opacity:1" fill="#1a8988" d="M 1867.5,240.5 C 1869.03,240.427 1870.03,241.094 1870.5,242.5C 1868.97,242.573 1867.97,241.906 1867.5,240.5 Z"/></g>
<g><path style="opacity:1" fill="#20ad9a" d="M 1872.5,243.5 C 1875.45,244.245 1878.45,244.412 1881.5,244C 1878.81,244.335 1878.14,245.501 1879.5,247.5C 1876.67,246.921 1874.34,245.588 1872.5,243.5 Z"/></g>
<g><path style="opacity:0.008" fill="#fdfaf4" d="M 392.5,245.5 C 393.833,246.167 393.833,246.167 392.5,245.5 Z"/></g>
<g><path style="opacity:1" fill="#157d8a" d="M 1879.5,247.5 C 1881.03,247.427 1882.03,248.094 1882.5,249.5C 1880.97,249.573 1879.97,248.906 1879.5,247.5 Z"/></g>
<g><path style="opacity:1" fill="#16838a" d="M 1893.5,255.5 C 1895.03,255.427 1896.03,256.094 1896.5,257.5C 1894.97,257.573 1893.97,256.906 1893.5,255.5 Z"/></g>
<g><path style="opacity:1" fill="#14358b" d="M 647.5,256.5 C 643.915,258.806 639.915,260.139 635.5,260.5C 639.233,258.589 643.233,257.256 647.5,256.5 Z"/></g>
<g><path style="opacity:1" fill="#17858e" d="M 1900.5,259.5 C 1902.03,259.427 1903.03,260.094 1903.5,261.5C 1901.97,261.573 1900.97,260.906 1900.5,259.5 Z"/></g>
<g><path style="opacity:0.008" fill="#fefcf3" d="M 327.5,262.5 C 328.833,263.167 328.833,263.167 327.5,262.5 Z"/></g>
<g><path style="opacity:0.01" fill="#f2fefe" d="M 329.5,263.5 C 330.773,264.077 330.773,264.743 329.5,265.5C 328.537,265.03 328.537,264.363 329.5,263.5 Z"/></g>
<g><path style="opacity:1" fill="#1a7389" d="M 1905.5,262.5 C 1907.03,262.427 1908.03,263.094 1908.5,264.5C 1906.97,264.573 1905.97,263.906 1905.5,262.5 Z"/></g>
<g><path style="opacity:1" fill="#1b7582" d="M 1912.5,266.5 C 1914.03,266.427 1915.03,267.094 1915.5,268.5C 1913.97,268.573 1912.97,267.906 1912.5,266.5 Z"/></g>
<g><path style="opacity:0.008" fill="#fdfff3" d="M 285.5,276.5 C 286.833,277.167 286.833,277.167 285.5,276.5 Z"/></g>
<g><path style="opacity:1" fill="#e6e5ed" d="M 188.5,308.5 C 188.5,308.833 188.5,309.167 188.5,309.5C 187.329,310.345 185.995,311.011 184.5,311.5C 179.835,312.057 175.502,313.39 171.5,315.5C 161.487,318.1 151.487,320.434 141.5,322.5C 139.421,322.029 137.421,321.363 135.5,320.5C 135.027,319.094 134.027,318.427 132.5,318.5C 123.918,316.085 115.585,313.085 107.5,309.5C 107.027,308.094 106.027,307.427 104.5,307.5C 102.708,307.634 101.042,307.301 99.5,306.5C 98.3646,304.787 96.698,304.12 94.5,304.5C 94.1583,303.662 93.4916,303.328 92.5,303.5C 89.6111,302.119 87.1111,300.119 85,297.5C 84.2753,298.059 83.4419,298.392 82.5,298.5C 81.0616,296.89 79.2282,295.557 77,294.5C 76.4387,295.022 75.772,295.355 75,295.5C 71.6005,294.044 68.1005,293.044 64.5,292.5C 62.597,292.204 60.9303,291.537 59.5,290.5C 58.0697,289.463 56.403,288.796 54.5,288.5C 54.1667,288.5 53.8333,288.5 53.5,288.5C 51.8243,286.166 49.491,285.166 46.5,285.5C 30.8427,279.518 15.176,273.518 -0.5,267.5C -0.5,266.833 -0.5,266.167 -0.5,265.5C 1.66307,266.281 1.9964,265.447 0.5,263C 1.15378,254.226 1.82045,245.392 2.5,236.5C 64.7797,261.234 126.78,285.234 188.5,308.5 Z"/></g>
<g><path style="opacity:1" fill="#9797ba" d="M 46.5,285.5 C 49.491,285.166 51.8243,286.166 53.5,288.5C 50.8427,288.065 48.5093,287.065 46.5,285.5 Z"/></g>
<g><path style="opacity:1" fill="#655f97" d="M 54.5,288.5 C 56.403,288.796 58.0697,289.463 59.5,290.5C 57.302,290.88 55.6354,290.213 54.5,288.5 Z"/></g>
<g><path style="opacity:1" fill="#bfbdd5" d="M 64.5,292.5 C 68.1005,293.044 71.6005,294.044 75,295.5C 75.772,295.355 76.4387,295.022 77,294.5C 79.2282,295.557 81.0616,296.89 82.5,298.5C 83.4419,298.392 84.2753,298.059 85,297.5C 87.1111,300.119 89.6111,302.119 92.5,303.5C 83.1593,299.829 73.826,296.162 64.5,292.5 Z"/></g>
<g><path style="opacity:0.008" fill="#fefff3" d="M 210.5,296.5 C 210.897,295.475 211.563,295.308 212.5,296C 211.906,296.464 211.239,296.631 210.5,296.5 Z"/></g>
<g><path style="opacity:1" fill="#7c7caa" d="M 94.5,304.5 C 96.698,304.12 98.3646,304.787 99.5,306.5C 97.597,306.204 95.9303,305.537 94.5,304.5 Z"/></g>
<g><path style="opacity:1" fill="#8182aa" d="M 104.5,307.5 C 106.027,307.427 107.027,308.094 107.5,309.5C 105.973,309.573 104.973,308.906 104.5,307.5 Z"/></g>
<g><path style="opacity:1" fill="#67a6f0" d="M 184.5,311.5 C 180.498,313.61 176.165,314.943 171.5,315.5C 175.502,313.39 179.835,312.057 184.5,311.5 Z"/></g>
<g><path style="opacity:1" fill="#7070a0" d="M 132.5,318.5 C 134.027,318.427 135.027,319.094 135.5,320.5C 133.973,320.573 132.973,319.906 132.5,318.5 Z"/></g>
<g><path style="opacity:1" fill="#132981" d="M 305.5,354.5 C 305.389,355.117 305.056,355.617 304.5,356C 298.026,358.326 291.359,359.493 284.5,359.5C 291.408,357.931 298.408,356.265 305.5,354.5 Z"/></g>
</svg>
